<?xml version="1.0" standalone="no"?>
<!DOCTYPE svg PUBLIC "-//W3C//DTD SVG 1.1//EN" "http://www.w3.org/Graphics/SVG/1.1/DTD/svg11.dtd"><svg t="1669726502396"
  class="icon" viewBox="0 0 1024 1024" version="1.1" xmlns="http://www.w3.org/2000/svg" p-id="23300"
  xmlns:xlink="http://www.w3.org/1999/xlink" width="200" height="200">
  <path
    d="M212.0704 435.4048l229.205333 116.3264c22.6304 11.502933 36.590933 32.733867 36.590934 55.7056v232.686933c0 49.493333-60.928 80.452267-109.6704 55.671467l-229.205334-116.3264C116.394667 768 102.4 746.769067 102.4 723.797333v-232.721066c0-49.493333 60.928-80.452267 109.6704-55.671467zM921.6 491.042133v232.7552c0 22.971733-13.960533 44.202667-36.590933 55.637334l-229.1712 116.394666C607.061333 920.576 546.133333 889.6512 546.133333 840.123733v-232.721066c0-22.971733 13.960533-44.202667 36.590934-55.671467l229.1712-116.360533c48.776533-24.746667 109.704533 6.178133 109.704533 55.7056zM545.006933 128.443733l207.018667 120.9344c44.032 25.7024 44.032 90.0096 0 115.712l-207.018667 120.9344c-20.411733 11.946667-45.602133 11.946667-66.048 0l-207.018666-120.900266c-44.032-25.736533-44.032-90.043733 0-115.746134l207.018666-120.9344a65.365333 65.365333 0 0 1 66.048 0z"
    fill="#0D9819" p-id="23301"></path>
  <path
    d="M900.266667 494.933333c-23.313067 113.7664-52.770133 192.853333-88.3712 237.226667-35.566933 44.407467-87.790933 89.565867-156.603734 135.4752-48.7424 24.746667-109.1584 22.016-109.1584-27.511467v-232.721066c0-22.971733 13.960533-44.202667 36.590934-55.671467l229.1712-116.360533c48.776533-24.746667 88.405333 10.0352 88.405333 59.562666zM212.0704 435.4048l229.205333 116.3264c22.6304 11.502933 36.590933 32.733867 36.590934 55.7056V665.6c0 49.493333-100.215467 228.522667-148.957867 203.741867l-189.917867-89.873067C116.394667 768 102.4 746.769067 102.4 723.797333v-232.721066c0-49.493333 60.928-80.452267 109.6704-55.671467z m332.936533-306.9952l174.762667 102.263467c32.256 18.670933 0 76.526933-39.8336 115.4048l-134.929067 112.059733c-20.411733 11.946667-62.429867 29.9008-82.875733 17.954133l-190.190933-111.0016c-44.032-25.736533-44.032-90.043733 0-115.746133l207.018666-120.9344a65.365333 65.365333 0 0 1 66.048 0z"
    fill="#FFFFFF" opacity=".3" p-id="23302"></path>
</svg>