<?xml version="1.0" standalone="no"?><!DOCTYPE svg PUBLIC "-//W3C//DTD SVG 1.1//EN" "http://www.w3.org/Graphics/SVG/1.1/DTD/svg11.dtd"><svg t="1669713905595" class="icon" viewBox="0 0 1024 1024" version="1.1" xmlns="http://www.w3.org/2000/svg" p-id="6774" xmlns:xlink="http://www.w3.org/1999/xlink" width="200" height="200"><path d="M896 938.666667H128c-23.466667 0-42.666667-19.2-42.666667-42.666667V213.333333c0-23.466667 19.2-42.666667 42.666667-42.666666h768c23.466667 0 42.666667 19.2 42.666667 42.666666v682.666667c0 23.466667-19.2 42.666667-42.666667 42.666667z" fill="#BAE7FF" p-id="6775"></path><path d="M938.666667 341.333333H85.333333v-128c0-23.466667 19.2-42.666667 42.666667-42.666666h768c23.466667 0 42.666667 19.2 42.666667 42.666666v128z" fill="#185ABD" p-id="6776"></path><path d="M266.666667 256c-23.466667 0-42.666667-19.2-42.666667-42.666667V128c0-23.466667 19.2-42.666667 42.666667-42.666667s42.666667 19.2 42.666666 42.666667v85.333333c0 23.466667-19.2 42.666667-42.666666 42.666667zM746.666667 256c-23.466667 0-42.666667-19.2-42.666667-42.666667V128c0-23.466667 19.2-42.666667 42.666667-42.666667s42.666667 19.2 42.666666 42.666667v85.333333c0 23.466667-19.2 42.666667-42.666666 42.666667z" fill="#50D9FF" p-id="6777"></path><path d="M213.333333 597.333333h85.333334v85.333334h-85.333334z" fill="#2B7CD3" p-id="6778"></path><path d="M213.333333 746.666667h85.333334v85.333333h-85.333334z" fill="#41A5EE" p-id="6779"></path><path d="M384 597.333333h85.333333v85.333334h-85.333333z" fill="#2B7CD3" p-id="6780"></path><path d="M384 746.666667h85.333333v85.333333h-85.333333z" fill="#41A5EE" p-id="6781"></path><path d="M554.666667 597.333333h85.333333v85.333334h-85.333333z" fill="#2B7CD3" p-id="6782"></path><path d="M554.666667 746.666667h85.333333v85.333333h-85.333333z" fill="#41A5EE" p-id="6783"></path><path d="M725.333333 597.333333h85.333334v85.333334h-85.333334z" fill="#2B7CD3" p-id="6784"></path><path d="M384 448h85.333333v85.333333h-85.333333zM554.666667 448h85.333333v85.333333h-85.333333zM725.333333 448h85.333334v85.333333h-85.333334z" fill="#185ABD" p-id="6785"></path></svg>