<?xml version="1.0" standalone="no"?><!DOCTYPE svg PUBLIC "-//W3C//DTD SVG 1.1//EN" "http://www.w3.org/Graphics/SVG/1.1/DTD/svg11.dtd"><svg t="1669726106496" class="icon" viewBox="0 0 1024 1024" version="1.1" xmlns="http://www.w3.org/2000/svg" p-id="3534" xmlns:xlink="http://www.w3.org/1999/xlink" width="200" height="200"><path d="M522.1888 899.6352l130.2016-403.968c2.7648-8.5504-3.584-17.3056-12.544-17.3568l-257.1776-1.4848a13.2608 13.2608 0 0 0-12.7488 17.2544l126.9248 405.4528c3.8912 12.3392 21.4016 12.3904 25.344 0.1024z" fill="#FC7032" p-id="3535"></path><path d="M698.2144 353.5872l64.8704-201.3184c2.7648-8.5504-3.6352-17.3568-12.6464-17.3568h-182.016c-10.24 0-16.64 11.1104-11.4688 19.968l117.0944 201.3184c5.8368 9.9328 20.6336 8.2944 24.1664-2.6112z" fill="#FF7E3E" p-id="3536"></path><path d="M282.0096 402.3808L216.7296 193.792c-3.3792-10.8032-17.8688-12.6976-23.9104-3.1232L62.3104 398.1312c-5.5296 8.8064 0.768 20.2752 11.1616 20.3264l195.7888 1.1264c9.0112 0.1024 15.4624-8.6016 12.7488-17.2032z" fill="#FF9552" p-id="3537"></path><path d="M753.5616 422.4512l192.3072 1.1264c10.3424 0.0512 16.7424-11.1616 11.52-20.0192l-124.7232-210.7392c-5.8368-9.8304-20.5312-8.192-24.064 2.7136l-67.584 209.6128c-2.7648 8.4992 3.584 17.2544 12.544 17.3056zM295.4752 476.3136l-212.3776-1.2288c-11.2128-0.0512-17.4592 12.9536-10.3936 21.6576l344.4736 423.2704c9.216 11.3664 27.3408 1.5872 22.9888-12.3392l-132.096-422.0416a13.17888 13.17888 0 0 0-12.5952-9.3184zM714.24 487.9872l-135.0144 418.816c-4.5056 13.9264 13.6192 23.808 22.8864 12.4928l343.0912-417.5872c7.1168-8.6528 0.9728-21.6576-10.1888-21.7088l-208.128-1.2288c-5.6832 0-10.8544 3.7376-12.6464 9.216z" fill="#FC7032" p-id="3538"></path><path d="M398.2336 420.352l225.3824 1.3312c10.2912 0.0512 16.7424-11.0592 11.5712-19.968l-111.5648-191.744c-5.0688-8.7552-17.664-8.8064-22.8864-0.1536l-113.8176 190.464c-5.2736 8.8064 1.0752 20.0192 11.3152 20.0704z" fill="#FF9552" p-id="3539"></path><path d="M349.0816 353.4336l118.6304-198.4c5.2736-8.8576-1.0752-20.0704-11.4176-20.0704h-180.736c-8.96 0-15.36 8.704-12.6976 17.2544l62.1056 198.4c3.4816 10.9056 18.2272 12.6464 24.1152 2.816z" fill="#FFA56A" p-id="3540"></path><path d="M424.8576 858.5216l-116.736-372.9408a13.29152 13.29152 0 0 0-12.5952-9.3184l-212.3776-1.2288c-11.2128-0.0512-17.4592 12.9536-10.3936 21.6576l301.6192 370.6368c17.1008-2.1504 33.8944-5.12 50.4832-8.8064zM639.8464 478.3104l-257.1264-1.4848a13.2608 13.2608 0 0 0-12.7488 17.2544l109.4144 349.44c24.1152-7.9872 47.5648-17.5104 70.144-28.5696l102.912-319.2832c2.7136-8.5504-3.6352-17.3056-12.5952-17.3568zM808.5504 195.4304l-67.584 209.6128c-2.7648 8.5504 3.584 17.3056 12.544 17.3568l100.096 0.5632c7.5776-36.8128 11.5712-74.9568 11.5712-114.0224 0-23.1424-1.5872-45.9776-4.3008-68.4032l-28.3136-47.8208c-5.7344-9.8304-20.48-8.1408-24.0128 2.7136zM838.912 479.4368l-111.9232-0.6656c-5.7856-0.0512-10.9568 3.6864-12.6976 9.216l-91.4944 283.8016c101.0688-70.1952 178.0736-172.544 216.1152-292.352z" fill="#FF7E3E" p-id="3541"></path><path d="M354.2528 632.9856l-46.1312-147.4048a13.29152 13.29152 0 0 0-12.5952-9.3184l-212.3776-1.2288c-11.2128-0.0512-17.4592 12.9536-10.3936 21.6576l139.6736 171.6224a555.9296 555.9296 0 0 0 141.824-35.328zM369.9712 494.0288l36.1472 115.4048a564.3776 564.3776 0 0 0 167.2192-131.584l-190.6176-1.1264c-9.0112 0.0512-15.4624 8.7552-12.7488 17.3056zM568.4736 134.912c-10.24 0-16.64 11.1104-11.4688 19.968l105.9328 182.1184a559.872 559.872 0 0 0 47.5648-202.0864h-142.0288z" fill="#FF9552" p-id="3542"></path><path d="M216.7296 193.792c-3.3792-10.8032-17.8688-12.6976-23.9104-3.1232L62.3104 398.1312c-5.5296 8.8064 0.768 20.2752 11.1616 20.3264l172.2368 0.9728c12.2368-5.7344 24.1664-11.9296 35.8912-18.5344L216.7296 193.792z" fill="#FFA56A" p-id="3543"></path></svg>