<?xml version="1.0" standalone="no"?>
<!DOCTYPE svg PUBLIC "-//W3C//DTD SVG 1.1//EN" "http://www.w3.org/Graphics/SVG/1.1/DTD/svg11.dtd"><svg t="1669615609324"
  class="icon" viewBox="0 0 1024 1024" version="1.1" xmlns="http://www.w3.org/2000/svg" p-id="2753"
  xmlns:xlink="http://www.w3.org/1999/xlink" width="200" height="200">
  <path
    d="M379.648 458.048q0 72.896 51.52 124.448a32 32 0 1 0 45.28-45.248q-32.8-32.832-32.8-79.2 0-46.4 32.8-79.2l158.4-158.4q32.8-32.8 79.2-32.8 46.4 0 79.2 32.8 32.8 32.8 32.8 79.2 0 46.4-32.8 79.2l-169.728 169.696a32 32 0 1 0 45.248 45.248l169.728-169.696q51.52-51.52 51.52-124.448 0-72.896-51.52-124.48-51.552-51.52-124.48-51.52-72.864 0-124.416 51.52l-158.4 158.4q-51.552 51.584-51.552 124.48z"
    fill="#929292" p-id="2754"></path>
  <path
    d="M504 351.68l-99.52 15.68q10.88-17.6 26.56-33.28l158.4-158.4q51.52-51.52 124.448-51.52 72.896 0 124.448 51.52 48.192 48.224 51.328 115.04l-63.776 10.08v-0.64q0-46.4-32.8-79.2-32.8-32.8-79.2-32.8-46.4 0-79.2 32.8l-130.72 130.72z"
    fill="#e2e2e2" p-id="2755"></path>
  <path
    d="M602.048 587.648q0-72.896-51.552-124.48a32 32 0 1 0-45.248 45.28q32.8 32.8 32.8 79.2 0 46.4-32.8 79.2l-158.4 158.4q-32.8 32.8-79.2 32.8-46.4 0-79.2-32.8-32.8-32.832-32.8-79.2 0-46.4 32.8-79.2l169.696-169.696a32 32 0 1 0-45.248-45.28l-169.696 169.728q-51.552 51.52-51.552 124.448 0 72.896 51.52 124.448 51.584 51.52 124.48 51.52t124.448-51.52l158.4-158.4q51.52-51.52 51.52-124.448z"
    fill="#444444" p-id="2756"></path>
</svg>