<?xml version="1.0" standalone="no"?><!DOCTYPE svg PUBLIC "-//W3C//DTD SVG 1.1//EN" "http://www.w3.org/Graphics/SVG/1.1/DTD/svg11.dtd"><svg t="1670141266213" class="icon" viewBox="0 0 1024 1024" version="1.1" xmlns="http://www.w3.org/2000/svg" p-id="30041" xmlns:xlink="http://www.w3.org/1999/xlink" width="200" height="200"><path d="M554.666667 576m32 0l128 0q32 0 32 32l0 0q0 32-32 32l-128 0q-32 0-32-32l0 0q0-32 32-32Z" fill="#BED5FF" p-id="30042"></path><path d="M192 725.333333m32 0l128 0q32 0 32 32l0 0q0 32-32 32l-128 0q-32 0-32-32l0 0q0-32 32-32Z" fill="#BED5FF" p-id="30043"></path><path d="M622.72 389.76L397.12 794.24a32 32 0 0 0 0.256 31.637333l86.933333 150.144A32 32 0 0 0 512 992h448a32 32 0 0 0 27.946667-47.573333l-309.333334-554.666667a32 32 0 0 0-55.893333 0z m27.925333 81.28L905.493333 928h-375.04l-68.586666-118.442667 188.778666-338.517333z" fill="#2674FD" p-id="30044"></path><path d="M259.989333 539.178667l-224 405.333333A32 32 0 0 0 64 992h448a32 32 0 0 0 28.010667-47.488l-224-405.333333a32 32 0 0 0-56.021334 0zM288 620.8l169.749333 307.2H118.229333L288 620.8z" fill="#2674FD" p-id="30045"></path><path d="M298.666667 234.666667m-213.333334 0a213.333333 213.333333 0 1 0 426.666667 0 213.333333 213.333333 0 1 0-426.666667 0Z" fill="#39EAC2" p-id="30046"></path></svg>